<svg width="21" height="16" viewBox="0 0 21 16" fill="none" xmlns="http://www.w3.org/2000/svg">
<g id="eg.svg" clip-path="url(#clip0_1_58)">
<path id="Vector" d="M0.25 10.5H20.25V15.5H0.25V10.5Z" fill="black"/>
<path id="Vector_2" d="M0.25 5.5H20.25V10.5H0.25V5.5Z" fill="white"/>
<path id="Vector_3" d="M0.25 0.5H20.25V5.5H0.25V0.5Z" fill="#CE1126"/>
<g id="Group">
<path id="Vector_4" d="M10.2701 8.06008L11.9823 9.64959L11.8604 6.76283C11.8425 6.32533 11.4623 6.42568 11.1862 6.58351C10.9064 6.76281 10.5872 6.76281 10.25 6.64443C9.91287 6.76281 9.59367 6.76281 9.3139 6.58351C9.03777 6.42568 8.65765 6.32531 8.63965 6.76281L8.5177 9.64956L10.2701 8.06006L10.2701 8.06008Z" fill="white" stroke="#C09300" stroke-width="0.03175" stroke-linejoin="round"/>
<path id="a" d="M8.83662 6.66232L8.71827 9.47032L8.5174 9.64952L8.6394 6.76277C8.69675 6.72332 8.79722 6.66235 8.83665 6.66235L8.83662 6.66232ZM9.07712 6.86332L8.9767 9.2122L8.77589 9.4177L8.89785 6.70545C8.93735 6.74487 9.0557 6.8417 9.07715 6.8632L9.07712 6.86332ZM9.29587 7.04257L9.217 9.00162L9.05562 9.15937L9.15607 6.92422C9.19542 6.96367 9.27432 7.02107 9.29587 7.04257ZM9.53262 7.14307L9.45372 8.81275L9.2959 8.94075L9.37482 7.08212C9.41432 7.10005 9.4932 7.14307 9.53265 7.14307H9.53262ZM9.75137 7.14307L9.69395 8.5345L9.53257 8.69232L9.59357 7.16102C9.63294 7.16102 9.7334 7.16102 9.75137 7.14307Z" fill="#C09300"/>
<path id="a_2" d="M11.6631 6.66232L11.7815 9.47032L11.9824 9.64952L11.8604 6.76277C11.803 6.72332 11.7025 6.66235 11.6631 6.66235L11.6631 6.66232ZM11.4226 6.86332L11.5231 9.2122L11.7239 9.4177L11.6019 6.70545C11.5624 6.74487 11.4441 6.8417 11.4226 6.8632L11.4226 6.86332ZM11.2039 7.04257L11.2828 9.00162L11.4441 9.15937L11.3437 6.92422C11.3043 6.96367 11.2254 7.02107 11.2039 7.04257ZM10.9671 7.14307L11.046 8.81275L11.2039 8.94075L11.1249 7.08212C11.0854 7.10005 11.0066 7.14307 10.9671 7.14307H10.9671ZM10.7484 7.14307L10.8058 8.5345L10.9672 8.69232L10.9062 7.16102C10.8668 7.16102 10.7664 7.16102 10.7484 7.14307Z" fill="#C09300"/>
<path id="Vector_5" d="M10.3289 8.37659L10.5692 9.47046L10.4903 9.54934L10.4078 9.48834L10.2715 8.51291L10.3289 9.48836L10.25 9.58879L10.171 9.48839L10.2284 8.51296L10.0922 9.48841L10.0096 9.54941L9.93073 9.47054L10.171 8.37666H10.3288L10.3289 8.37659Z" fill="#C09300" stroke="#C09300" stroke-width="0.02685"/>
<g id="b">
<path id="Vector_6" d="M9.71186 7.89608L9.23486 9.58871L9.89124 9.68916L10.1709 8.41606L9.71186 7.89606V7.89608Z" fill="white" stroke="#C09300" stroke-width="0.029725" stroke-linejoin="round"/>
<path id="Vector_7" d="M9.55414 8.47357L9.61154 8.6134L9.92166 8.3172" stroke="#C09300" stroke-width="0.03175" stroke-linejoin="round"/>
<path id="Vector_8" d="M9.76888 8.12308L9.83378 8.73173L10.031 8.47353M9.95213 8.57383L10.0599 8.9457M10.1021 8.80908L9.88418 9.14008M9.95218 9.4705L9.88243 9.14055L9.8215 8.80495L9.6755 9.0027L9.61145 8.7747L9.4071 8.98433L9.511 9.36563L9.65445 9.12975L9.73333 9.37005L9.88058 9.14098" stroke="#C09300" stroke-width="0.03175" stroke-linejoin="round"/>
<path id="Vector_9" d="M9.37463 9.54932L9.50713 9.36322L9.59343 9.64965L9.71181 9.44884L9.79073 9.68922" stroke="#C09300" stroke-width="0.03175" stroke-linejoin="round"/>
</g>
<g id="b_2">
<path id="Vector_10" d="M10.7879 7.89608L11.2649 9.58871L10.6085 9.68916L10.3288 8.41606L10.7879 7.89606V7.89608Z" fill="white" stroke="#C09300" stroke-width="0.029725" stroke-linejoin="round"/>
<path id="Vector_11" d="M10.9456 8.47357L10.8882 8.6134L10.5781 8.3172" stroke="#C09300" stroke-width="0.03175" stroke-linejoin="round"/>
<path id="Vector_12" d="M10.7309 8.12308L10.666 8.73173L10.4687 8.47353M10.5476 8.57383L10.4399 8.9457M10.3976 8.80908L10.6156 9.14008M10.5476 9.4705L10.6173 9.14055L10.6783 8.80495L10.8243 9.0027L10.8883 8.7747L11.0927 8.98433L10.9888 9.36563L10.8453 9.12975L10.7664 9.37005L10.6192 9.14098" stroke="#C09300" stroke-width="0.03175" stroke-linejoin="round"/>
<path id="Vector_13" d="M11.1251 9.54932L10.9926 9.36322L10.9063 9.64965L10.7879 9.44884L10.709 9.68922" stroke="#C09300" stroke-width="0.03175" stroke-linejoin="round"/>
</g>
<g id="Group_2">
<path id="Vector_14" d="M10.2499 10.3453C10.7485 10.3453 11.2255 10.3059 11.5052 10.227C11.6236 10.2055 11.6236 10.1445 11.6236 10.0656C11.742 10.0262 11.681 9.88634 11.7635 9.88634C11.681 9.90792 11.6631 9.74649 11.5626 9.76809C11.5626 9.62814 11.4227 9.61024 11.3044 9.64959C11.0676 9.72859 10.648 9.74649 10.2499 9.74649C9.85179 9.72857 9.43571 9.72857 9.19539 9.64962C9.07706 9.61027 8.93724 9.62817 8.93724 9.76812C8.83679 9.74652 8.81884 9.90794 8.73639 9.88637C8.81889 9.88637 8.75789 10.0262 8.87624 10.0656C8.87624 10.1446 8.87624 10.2055 8.99819 10.227C9.27431 10.3059 9.75139 10.3454 10.2499 10.3454V10.3453Z" fill="white" stroke="#C09300" stroke-width="0.05945" stroke-linecap="round" stroke-linejoin="round"/>
<path id="Vector_15" d="M9.57215 9.58858C9.7335 9.61008 9.91285 9.62803 10.0528 9.61008C10.1316 9.61008 10.189 9.74638 10.0312 9.76793C9.89138 9.78581 9.67257 9.76793 9.5542 9.74638C9.45377 9.72843 9.235 9.68901 9.0951 9.64948C8.95525 9.58858 9.0557 9.47028 9.13455 9.48818C9.25655 9.52761 9.41433 9.56711 9.57215 9.58858ZM10.9279 9.58858C10.7665 9.61008 10.5872 9.62803 10.4509 9.61008C10.3684 9.61008 10.311 9.74638 10.4688 9.76793C10.6087 9.78581 10.8275 9.76793 10.9458 9.74638C11.0463 9.72843 11.265 9.68901 11.4049 9.64948C11.5448 9.58858 11.4444 9.47028 11.3654 9.48818C11.2435 9.52761 11.0857 9.56711 10.9279 9.58858H10.9279Z" fill="white" stroke="#C09300" stroke-width="0.03175" stroke-linecap="round" stroke-linejoin="round"/>
<path id="Vector_16" d="M9.07717 9.50982C8.95524 9.48832 8.89787 9.62812 8.93734 9.70699C8.95527 9.66754 9.03777 9.66754 9.05572 9.62812C9.07717 9.56719 9.03777 9.56719 9.07717 9.50982ZM9.55417 9.87657C9.55417 9.79774 9.63304 9.80744 9.63304 9.72854C9.63304 9.68909 9.61154 9.62804 9.57212 9.62804C9.53262 9.62804 9.49317 9.66754 9.49317 9.70697C9.47522 9.78589 9.55417 9.79772 9.55417 9.87654V9.87657ZM10.1219 9.64957C10.2402 9.64957 10.2285 9.80742 10.1711 9.88632C10.1711 9.82894 10.0706 9.80742 10.0706 9.76802C10.0706 9.70697 10.1613 9.70697 10.1219 9.64957H10.1219ZM11.4227 9.50982C11.5446 9.48832 11.602 9.62812 11.5625 9.70699C11.5446 9.66754 11.4621 9.66754 11.4442 9.62812C11.4227 9.56719 11.4622 9.56719 11.4227 9.50982H11.4227ZM10.9457 9.87657C10.9457 9.79774 10.8668 9.80744 10.8668 9.72854C10.8668 9.68909 10.8883 9.62804 10.9278 9.62804C10.9672 9.62804 11.0067 9.66754 11.0067 9.70697C11.0247 9.78589 10.9457 9.79772 10.9457 9.87654L10.9457 9.87657ZM10.3779 9.64957C10.2596 9.64957 10.2713 9.80742 10.3287 9.88632C10.3287 9.82894 10.4291 9.80742 10.4291 9.76802C10.4291 9.70697 10.3385 9.70697 10.3779 9.64957Z" fill="white" stroke="#C09300" stroke-width="0.03175" stroke-linecap="round" stroke-linejoin="round"/>
<path id="Vector_17" d="M9.11664 9.54933C9.15614 9.54933 9.21709 9.56728 9.23502 9.58876L9.11652 9.54926L9.11664 9.54933ZM9.31364 9.61033C9.33519 9.61033 9.41409 9.62823 9.45354 9.6497L9.31354 9.61021L9.31364 9.61033ZM10.0311 9.68908C9.99169 9.68908 9.91279 9.68908 9.89132 9.70695L10.0311 9.68895L10.0311 9.68908ZM9.81239 9.68908C9.79089 9.66753 9.71199 9.66753 9.67257 9.68908H9.81232H9.81239ZM11.3834 9.54933C11.3439 9.54933 11.2865 9.56728 11.265 9.58876L11.3834 9.54933ZM11.1861 9.61033C11.1646 9.61033 11.0857 9.62823 11.0463 9.6497L11.1863 9.61021L11.1861 9.61033ZM10.4686 9.68908C10.5081 9.68908 10.587 9.68908 10.6085 9.70695L10.4685 9.68895L10.4686 9.68908ZM10.6874 9.68908C10.7089 9.66753 10.7878 9.66753 10.8273 9.68908H10.6873H10.6874Z" fill="white" stroke="#C09300" stroke-width="0.022275" stroke-linecap="round" stroke-linejoin="round"/>
<g id="Group_3">
<path id="Vector_18" d="M9.08339 9.86459C9.07004 9.86204 9.06302 9.85147 9.06639 9.83897C9.07049 9.82372 9.08264 9.81504 9.09419 9.81912C9.10154 9.82174 9.11494 9.83527 9.11499 9.84012C9.11507 9.84567 9.10799 9.85892 9.10494 9.85897C9.10362 9.85897 9.10157 9.86012 9.10039 9.86152C9.09789 9.86447 9.09007 9.86589 9.08339 9.86462V9.86459ZM10.4566 9.96259C10.4516 9.96074 10.4438 9.94964 10.4438 9.94449C10.4438 9.93482 10.4581 9.91904 10.467 9.91899C10.4714 9.91894 10.4834 9.92517 10.4878 9.92982C10.496 9.93824 10.4942 9.95212 10.484 9.95999C10.479 9.96387 10.464 9.96529 10.4566 9.96257V9.96259ZM10.4656 10.0246C10.4551 10.021 10.4513 10.0159 10.4504 10.0042C10.4495 9.99212 10.4507 9.99024 10.4636 9.98324L10.4727 9.97824L10.4814 9.98212C10.4933 9.98749 10.4987 9.99327 10.4991 10.0013C10.4995 10.01 10.4931 10.0189 10.4831 10.0234C10.4743 10.0274 10.4738 10.0274 10.4656 10.0246L10.4656 10.0246Z" fill="#C09300"/>
<path id="Vector_19" d="M9.19363 9.75233C9.18498 9.75208 9.17313 9.76 9.16628 9.76408C9.15003 9.76783 9.13118 9.77783 9.11553 9.76718C9.10008 9.76243 9.07953 9.76618 9.07723 9.78513C9.08118 9.80143 9.10398 9.81075 9.11786 9.79998C9.12811 9.78655 9.15611 9.77865 9.15923 9.80155C9.14781 9.8188 9.14911 9.84175 9.13973 9.86013C9.13818 9.87155 9.13341 9.88243 9.12723 9.89213C9.11566 9.8933 9.10336 9.89195 9.09361 9.89918C9.07796 9.90003 9.06198 9.9078 9.05298 9.92105C9.04291 9.9355 9.03323 9.95018 9.03033 9.96793C9.03298 9.98605 9.05374 9.99125 9.06934 9.99218C9.08604 9.99673 9.10274 10.0028 9.11934 10.0078C9.14651 10.0138 9.17191 10.0236 9.19908 10.0296C9.23866 10.0416 9.28026 10.0471 9.32013 10.0578C9.32433 10.0591 9.32826 10.0603 9.33263 10.0609C9.34921 10.0643 9.35783 10.0463 9.35921 10.0327C9.36746 10.0037 9.37371 9.97423 9.38186 9.94523C9.38751 9.93355 9.39431 9.90728 9.37173 9.91318C9.35886 9.92088 9.34793 9.9325 9.33188 9.93348C9.31006 9.93473 9.32253 9.9571 9.33113 9.9663C9.33303 9.98098 9.32838 9.9985 9.31863 10.0101C9.30563 10.0183 9.28933 10.0086 9.27563 10.0054C9.26131 10.0056 9.23258 9.99828 9.24598 9.9788C9.25073 9.96438 9.25116 9.94855 9.25691 9.93425C9.26428 9.91893 9.26533 9.90215 9.26866 9.88585C9.25966 9.86643 9.24416 9.89225 9.23191 9.89445C9.22348 9.9003 9.19181 9.9028 9.20851 9.91788C9.22288 9.9288 9.21186 9.9478 9.20926 9.96163C9.20836 9.98088 9.18834 9.98548 9.17256 9.98113C9.15686 9.98038 9.13506 9.96873 9.14831 9.95148C9.15136 9.93708 9.15639 9.92298 9.15931 9.90848C9.16521 9.89103 9.17021 9.8744 9.17646 9.85693C9.17921 9.84143 9.18471 9.82673 9.19208 9.81318C9.19253 9.79603 9.20403 9.78128 9.20383 9.76393C9.20263 9.75548 9.19883 9.75243 9.19366 9.75223L9.19363 9.75233ZM9.10378 9.93358C9.10565 9.93323 9.10758 9.93349 9.10928 9.93433C9.11553 9.937 9.11568 9.94208 9.10928 9.94763C9.10646 9.95005 9.10328 9.95238 9.10223 9.95233C9.09053 9.95133 9.08708 9.94958 9.08661 9.94533C9.08611 9.94153 9.08736 9.94043 9.09516 9.9367C9.09788 9.9353 9.10077 9.93425 9.10376 9.93358H9.10378ZM9.07788 10.0591C9.06548 10.0474 9.06749 10.0389 9.08581 10.0253C9.09366 10.0194 9.09843 10.0201 9.10738 10.0283C9.12121 10.0409 9.12176 10.0488 9.10956 10.0596C9.10356 10.065 9.10091 10.0661 9.09389 10.0661C9.08656 10.0662 9.08448 10.0653 9.07788 10.0591ZM9.15414 10.0821C9.15128 10.0814 9.14859 10.0801 9.14624 10.0784C9.14389 10.0766 9.14192 10.0744 9.14046 10.0718C9.139 10.0693 9.13808 10.0665 9.13775 10.0636C9.13743 10.0606 9.1377 10.0577 9.13856 10.0549C9.14181 10.044 9.14363 10.043 9.15956 10.0428C9.17746 10.0426 9.18091 10.0456 9.18106 10.0613C9.18119 10.0702 9.18051 10.0722 9.17606 10.0763C9.17305 10.0788 9.16952 10.0806 9.16574 10.0816C9.16195 10.0826 9.15799 10.0828 9.15414 10.0821V10.0821ZM11.3819 10.0841C11.3762 10.0793 11.3751 10.0772 11.375 10.0712C11.3749 10.061 11.3808 10.0534 11.3937 10.0476C11.4107 10.0399 11.4177 10.041 11.4241 10.0523C11.4326 10.0673 11.4322 10.0735 11.422 10.0836C11.4164 10.0892 11.4153 10.0895 11.4024 10.0896C11.3897 10.0897 11.3882 10.0893 11.3819 10.0841H11.3819ZM9.25538 10.1128C9.24628 10.1104 9.24158 10.1036 9.24146 10.0927C9.24136 10.0843 9.24196 10.083 9.24778 10.0784C9.25158 10.0755 9.25753 10.0729 9.26228 10.0723C9.26893 10.0714 9.27136 10.072 9.27673 10.0757C9.29048 10.0854 9.29344 10.095 9.28549 10.1042C9.27699 10.1142 9.26891 10.1164 9.25538 10.1128ZM9.80339 10.1373C9.80139 10.1348 9.79688 10.1333 9.79643 10.1302C9.79723 10.1163 9.79793 10.1022 9.80233 10.089C9.80473 10.0759 9.80263 10.0622 9.80718 10.0495C9.81186 10.0263 9.81186 10.0025 9.81723 9.9794C9.81748 9.96753 9.81861 9.95565 9.82206 9.94425C9.82598 9.9262 9.82238 9.90735 9.82771 9.8895C9.82713 9.88283 9.83483 9.86493 9.84161 9.8755C9.85143 9.88995 9.86436 9.90165 9.87711 9.91343C9.88806 9.91973 9.87801 9.92903 9.87046 9.93218C9.86006 9.93625 9.85753 9.94768 9.85828 9.95773C9.85683 9.96808 9.85266 9.97788 9.85223 9.98848C9.85006 10.004 9.85048 10.0198 9.84848 10.0354C9.84391 10.0506 9.84563 10.0669 9.84413 10.0826C9.84438 10.0925 9.83963 10.1016 9.84026 10.1116C9.83906 10.1217 9.83861 10.1339 9.83008 10.1409C9.82183 10.145 9.80999 10.1443 9.80339 10.1373ZM10.5459 9.89233C10.5338 9.90145 10.523 9.9122 10.5123 9.92283C10.4975 9.93403 10.5245 9.94058 10.5279 9.95015C10.5319 9.9648 10.5317 9.9804 10.5327 9.99545C10.5371 10.0093 10.5391 10.0239 10.5381 10.0385C10.5368 10.054 10.5165 10.0507 10.5076 10.0595C10.4953 10.0647 10.4904 10.0768 10.481 10.0853C10.4749 10.0974 10.4732 10.1122 10.4724 10.1259C10.4733 10.1371 10.4649 10.1497 10.4724 10.1595C10.4734 10.1609 10.4746 10.1628 10.4756 10.1642C10.4781 10.1678 10.4841 10.165 10.4881 10.1658C10.5007 10.165 10.5138 10.167 10.5256 10.1619C10.5558 10.1567 10.5864 10.1562 10.617 10.1549C10.6357 10.1555 10.6537 10.1489 10.6724 10.1494C10.6871 10.1526 10.6937 10.1367 10.6935 10.1252C10.6852 10.1088 10.6924 10.0894 10.6857 10.0728C10.6799 10.056 10.6822 10.0371 10.6795 10.0197C10.6791 10.0059 10.6617 10.0009 10.6529 10.0111C10.6444 10.0197 10.6306 10.0214 10.624 10.0322C10.6166 10.0472 10.6397 10.0473 10.6435 10.0587C10.648 10.0704 10.6465 10.0832 10.6475 10.0955C10.6503 10.1103 10.6342 10.1111 10.624 10.1127C10.6106 10.1177 10.5918 10.1211 10.5842 10.1048C10.5794 10.0928 10.5801 10.08 10.5787 10.0673C10.5784 10.045 10.5731 10.0231 10.5717 10.0009C10.5704 9.9735 10.5657 9.94625 10.5639 9.91893C10.5637 9.9075 10.5621 9.88893 10.5459 9.89233H10.5459ZM10.5303 10.0986L10.5381 10.0993L10.5388 10.1087L10.5396 10.1181L10.5295 10.1213C10.5261 10.1223 10.5227 10.123 10.5193 10.1236C10.5177 10.1226 10.5161 10.1216 10.5146 10.1205C10.5091 10.1165 10.5105 10.1109 10.5178 10.1033C10.5218 10.099 10.5238 10.0982 10.5303 10.0986V10.0986ZM9.78113 9.86658C9.77163 9.86995 9.75958 9.8839 9.74988 9.88378C9.72788 9.88533 9.73096 9.90678 9.74676 9.91423C9.74883 9.92073 9.74688 9.92893 9.74751 9.9361C9.75061 9.95585 9.73816 9.97175 9.74051 9.9916C9.73941 10.0134 9.73283 10.0346 9.73191 10.0565C9.72576 10.079 9.72566 10.1023 9.72179 10.1252C9.71918 10.1458 9.70428 10.1385 9.69128 10.133C9.69121 10.1241 9.69063 10.1154 9.69054 10.1065C9.69594 10.086 9.67954 10.0801 9.66319 10.0776C9.64606 10.0792 9.63763 10.0645 9.64133 10.0494C9.64871 10.0407 9.66723 10.0431 9.67883 10.0416C9.70333 10.0467 9.70239 10.0138 9.68979 10.0026C9.68116 9.98665 9.65978 9.9798 9.65383 9.96348C9.65623 9.94183 9.64184 9.92018 9.62416 9.90958C9.59691 9.90765 9.57636 9.93113 9.56631 9.95408C9.55501 9.95733 9.54371 9.96075 9.53271 9.96503C9.51496 9.96945 9.48971 10.0002 9.51396 10.0119C9.52758 10.0157 9.56896 10.0251 9.55071 10.0439C9.54038 10.0616 9.52066 10.0619 9.50303 10.0572C9.48493 10.0572 9.46478 10.0484 9.46553 10.0275C9.46183 10.0088 9.46246 9.98858 9.45378 9.97128C9.45011 9.95028 9.42628 9.9552 9.42491 9.9744C9.40658 9.98775 9.40901 10.0093 9.42178 10.0252C9.42978 10.0434 9.42186 10.0646 9.41396 10.0814C9.40921 10.1033 9.38508 10.1041 9.36788 10.1111C9.35938 10.1144 9.32714 10.1092 9.33894 10.1276C9.35779 10.1342 9.38026 10.1402 9.39988 10.1354C9.42046 10.1328 9.43833 10.1187 9.44833 10.101C9.46213 10.087 9.48588 10.0943 9.50378 10.094C9.52311 10.0939 9.54286 10.1075 9.56161 10.0986C9.56701 10.0846 9.59211 10.0613 9.59986 10.0854C9.59853 10.107 9.61761 10.1185 9.63736 10.1159C9.65896 10.1146 9.65096 10.1311 9.65061 10.144C9.65206 10.1673 9.66711 10.1796 9.68661 10.1893C9.69321 10.1911 9.70021 10.1905 9.70686 10.1893C9.72561 10.1834 9.74573 10.1751 9.75141 10.1541C9.75901 10.1371 9.75916 10.1179 9.76471 10.1002C9.76913 10.072 9.77486 10.0437 9.77563 10.0151C9.78256 9.98908 9.78059 9.96168 9.78581 9.93538C9.78914 9.91583 9.79156 9.8963 9.79363 9.87678C9.79133 9.86635 9.78683 9.8646 9.78113 9.86663V9.86658ZM9.61163 9.97048C9.61538 9.97098 9.61748 9.97558 9.61788 9.98373C9.61826 9.99288 9.62301 10.0003 9.62878 10.0017C9.63336 10.0029 9.63296 10.0077 9.62804 10.0111C9.62514 10.0131 9.61998 10.0143 9.61083 10.0143C9.59638 10.0142 9.58741 10.0104 9.57958 10.0025L9.57488 9.99785L9.58188 9.99315C9.58546 9.99045 9.59188 9.98485 9.59598 9.98065C9.60311 9.9734 9.60781 9.97005 9.61161 9.9705L9.61163 9.97048ZM11.2624 9.77358C11.2484 9.77427 11.2345 9.77636 11.221 9.77983C11.195 9.7782 11.1819 9.8055 11.2069 9.8189C11.222 9.85725 11.2455 9.81098 11.2694 9.8142C11.3054 9.8212 11.3084 9.86 11.314 9.8892C11.316 9.91813 11.3243 9.94625 11.3327 9.97358C11.3568 10.0003 11.3147 10.0171 11.2968 9.99623C11.2815 9.97963 11.2488 9.95923 11.2304 9.98218C11.2078 9.99173 11.2068 10.0219 11.1881 10.0306C11.1579 10.0399 11.1541 10.0027 11.1381 9.98685C11.1235 9.96628 11.0954 9.96448 11.0725 9.9572C11.0618 9.93545 11.0674 9.89855 11.0452 9.88375C11.0266 9.89135 10.9924 9.9263 11.021 9.94235C11.0489 9.96635 11.0088 9.97735 10.996 9.99393C10.9777 10.0143 10.9747 10.0423 10.9717 10.0681C10.9403 10.0856 10.9342 10.0485 10.9304 10.0252C10.9279 9.9974 10.9044 10.0056 10.8881 10.0158C10.8644 10.0255 10.8524 10.0481 10.8358 10.0658C10.8338 10.082 10.8367 10.0997 10.8366 10.1166C10.842 10.1369 10.8666 10.1273 10.8819 10.126C10.9064 10.1157 10.9164 10.1417 10.8968 10.1565C10.8835 10.1734 10.8413 10.1645 10.8452 10.1916C10.8588 10.1932 10.8729 10.1927 10.8866 10.1916C10.9139 10.1841 10.9431 10.1649 10.946 10.1346C10.9495 10.1081 10.9876 10.1129 11.0085 10.1072C11.0345 10.0997 11.0658 10.0978 11.0717 10.1306C11.0895 10.1493 11.128 10.1703 11.1475 10.1447C11.1674 10.1326 11.1769 10.1113 11.1756 10.0885C11.1716 10.0689 11.2074 10.0682 11.2163 10.0791C11.2293 10.1005 11.27 10.0942 11.2897 10.0822C11.3106 10.0668 11.3152 10.0396 11.3452 10.0392C11.3898 10.0259 11.4361 10.0182 11.4796 10.0017C11.5148 9.99405 11.4743 9.97178 11.4655 9.95875C11.4387 9.9455 11.4153 9.9998 11.385 9.97283C11.3616 9.9549 11.3633 9.92088 11.3546 9.89468C11.3486 9.86073 11.3501 9.8216 11.3257 9.79468C11.3089 9.7768 11.286 9.7725 11.2624 9.77358H11.2624ZM11.0921 10.0103C11.0952 10.0102 11.0988 10.0118 11.1046 10.015C11.1156 10.021 11.1233 10.0311 11.1233 10.0392C11.1233 10.0445 11.122 10.0449 11.1139 10.0486C11.109 10.0508 11.1034 10.0533 11.1014 10.0533C11.0969 10.0532 11.0858 10.0444 11.0858 10.0408C11.0858 10.0393 11.0844 10.0336 11.0827 10.029C11.0798 10.021 11.0802 10.0211 11.0843 10.0158C11.0868 10.0123 11.0889 10.0104 11.0921 10.0103L11.0921 10.0103ZM11.2554 10.0189C11.2646 10.0183 11.2702 10.0212 11.2741 10.0283C11.2786 10.0365 11.2755 10.0428 11.2639 10.0478C11.2588 10.05 11.2537 10.0518 11.253 10.0517C11.2522 10.0516 11.248 10.0492 11.2436 10.0462C11.2369 10.0418 11.2359 10.0396 11.2358 10.0345C11.2357 10.0266 11.2445 10.0196 11.2553 10.0189H11.2554ZM11.0319 10.0212C11.0346 10.0208 11.0371 10.0222 11.0405 10.0251C11.045 10.029 11.0464 10.0321 11.0475 10.04C11.0483 10.0455 11.0482 10.0525 11.0475 10.0556C11.0463 10.0613 11.0462 10.061 11.0335 10.0611C11.0174 10.0613 11.016 10.0595 11.0162 10.0447C11.0165 10.0353 11.0166 10.0328 11.0217 10.0275C11.0257 10.0235 11.0292 10.0217 11.0319 10.0213L11.0319 10.0212ZM10.8944 10.0572C10.8971 10.0577 10.8995 10.0591 10.9015 10.061C10.9034 10.063 10.9048 10.0654 10.9054 10.0681C10.907 10.0761 10.9055 10.0797 10.8991 10.083C10.8935 10.0858 10.8807 10.0867 10.8772 10.0846C10.8753 10.0833 10.8737 10.0817 10.8725 10.0799C10.8708 10.0769 10.8711 10.0754 10.8733 10.0736C10.8748 10.0724 10.8764 10.0706 10.8764 10.0697C10.8764 10.0688 10.8781 10.0656 10.8803 10.0627C10.8819 10.0605 10.884 10.0588 10.8865 10.0578C10.889 10.0569 10.8917 10.0566 10.8943 10.0572L10.8944 10.0572ZM11.1256 10.0869C11.1301 10.0869 11.1339 10.0884 11.1366 10.0908C11.1412 10.0949 11.1411 10.1008 11.1358 10.1049C11.1324 10.1075 11.114 10.1072 11.1077 10.1049C11.1049 10.1038 11.1038 10.1024 11.1038 10.0994C11.1037 10.0959 11.1047 10.0937 11.1108 10.0908C11.1159 10.0884 11.1212 10.0869 11.1256 10.0869L11.1256 10.0869ZM10.6964 10.2073C10.694 10.2058 10.6904 10.2044 10.694 10.2018C10.6983 10.1942 10.707 10.1916 10.7146 10.1888C10.7283 10.1826 10.7402 10.173 10.749 10.1608C10.7502 10.1525 10.7596 10.148 10.7595 10.1393C10.7596 10.1274 10.7603 10.1153 10.7574 10.1037C10.7542 10.093 10.7462 10.0849 10.7368 10.0793C10.7304 10.0742 10.7199 10.0728 10.7176 10.0639C10.7162 10.0554 10.7239 10.0488 10.7266 10.0412C10.7321 10.0307 10.7368 10.0196 10.7428 10.0093C10.7493 10.0021 10.7593 10.0089 10.7627 10.0159C10.7674 10.0228 10.7716 10.0303 10.7739 10.0383C10.7815 10.0466 10.7882 10.0563 10.7909 10.0674C10.7946 10.0751 10.8005 10.0824 10.8002 10.0915C10.8002 10.1019 10.806 10.1112 10.8057 10.1217C10.806 10.1357 10.806 10.1503 10.8009 10.1635C10.7974 10.1709 10.7904 10.1753 10.7857 10.1818C10.7777 10.1892 10.7689 10.1963 10.7587 10.2003C10.7515 10.2026 10.7473 10.2109 10.7382 10.2089C10.7254 10.2091 10.7123 10.2109 10.6996 10.2088C10.7004 10.2101 10.6957 10.2065 10.6964 10.2073H10.6964ZM10.5251 10.2186C10.5191 10.2123 10.5178 10.2097 10.5177 10.2036C10.5176 10.1974 10.5188 10.1949 10.5247 10.1889C10.5357 10.1779 10.5411 10.1776 10.56 10.1872C10.578 10.1963 10.5842 10.1972 10.5858 10.1907C10.5873 10.1844 10.5977 10.1787 10.6076 10.1787C10.613 10.1783 10.6184 10.1802 10.6224 10.1837C10.6287 10.1886 10.629 10.1894 10.6292 10.2007C10.6293 10.2123 10.6291 10.2127 10.6219 10.2191C10.615 10.2252 10.6139 10.2256 10.6053 10.2247C10.5944 10.2237 10.5878 10.2186 10.586 10.21C10.5847 10.2038 10.5825 10.2023 10.5809 10.2065C10.5804 10.2079 10.5776 10.2096 10.5749 10.2103C10.5698 10.2115 10.5612 10.217 10.5551 10.2228C10.5527 10.225 10.5487 10.226 10.5421 10.226C10.5332 10.2261 10.532 10.2256 10.5251 10.2186ZM10.0296 9.99608C10.013 9.99625 9.99513 10.0102 9.99288 10.0266C9.99671 10.0453 10.0123 10.0638 10.0023 10.0836C10.0092 10.1089 9.98329 10.1185 9.96553 10.1039C9.95489 10.0796 9.94949 10.053 9.93354 10.0312C9.91344 10.0256 9.90468 10.0577 9.89053 10.0687C9.89753 10.0876 9.91796 10.1046 9.92029 10.1281C9.92514 10.151 9.91123 10.1764 9.89136 10.1883C9.87418 10.2047 9.85068 10.1988 9.82961 10.2024C9.80401 10.2174 9.84841 10.2228 9.86011 10.2235C9.88626 10.2261 9.91346 10.2227 9.93273 10.2031C9.95198 10.194 9.95048 10.1607 9.97336 10.1571C10.0131 10.1553 10.0524 10.1632 10.0921 10.1641C10.1134 10.1692 10.1462 10.1616 10.1609 10.1774C10.1609 10.205 10.1844 10.2221 10.207 10.2329C10.2194 10.2363 10.2326 10.2209 10.2452 10.218C10.2694 10.2103 10.262 10.1804 10.2765 10.1687C10.3177 10.1665 10.3594 10.167 10.4007 10.1664C10.4086 10.1666 10.4109 10.1554 10.4163 10.1508C10.4154 10.1348 10.4148 10.119 10.4124 10.1031C10.4044 10.083 10.4137 10.0571 10.3991 10.0399C10.3784 10.0342 10.3607 10.0532 10.3397 10.0547C10.3166 10.065 10.2971 10.0864 10.296 10.1125C10.2823 10.135 10.2603 10.1085 10.2679 10.0899C10.267 10.0818 10.2697 10.0723 10.2671 10.0649C10.2544 10.0497 10.2322 10.0546 10.2148 10.0524C10.1893 10.0534 10.1645 10.0479 10.139 10.0485C10.1167 10.0468 10.0934 10.0504 10.0718 10.0446C10.046 10.0438 10.0496 10.0186 10.0452 10.0008C10.0407 9.99759 10.0352 9.99594 10.0296 9.99613L10.0296 9.99608ZM10.0796 10.0883C10.0882 10.0884 10.0963 10.0895 10.1046 10.0906C10.1154 10.0924 10.1269 10.0869 10.1375 10.0906C10.1619 10.0948 10.1863 10.0938 10.2109 10.0961C10.2174 10.096 10.222 10.1007 10.2265 10.1047C10.2266 10.1218 10.2265 10.1392 10.2265 10.1563C10.2258 10.1627 10.2284 10.1712 10.2226 10.1758C10.2208 10.1772 10.2186 10.1783 10.2164 10.1789C10.2096 10.1772 10.2024 10.1727 10.1991 10.1664C10.1981 10.1575 10.1996 10.1488 10.1999 10.1399C10.1997 10.1375 10.2009 10.1339 10.1999 10.132C10.1947 10.1281 10.1884 10.1259 10.182 10.1258C10.1607 10.125 10.1399 10.1235 10.1187 10.1227C10.101 10.1216 10.0828 10.1242 10.0655 10.1195C10.0588 10.1171 10.0501 10.1179 10.046 10.111C10.0402 10.1041 10.0486 10.096 10.0546 10.093C10.0625 10.0895 10.071 10.0879 10.0796 10.0883H10.0796ZM10.3616 10.0945C10.3656 10.0945 10.3669 10.0958 10.3687 10.1031C10.3698 10.1079 10.3712 10.1136 10.3718 10.1156C10.3727 10.1186 10.3713 10.1195 10.3671 10.1211C10.3548 10.1258 10.3425 10.1253 10.3382 10.1195C10.3363 10.1169 10.3385 10.1087 10.3421 10.1055C10.3494 10.099 10.3574 10.0946 10.3616 10.0945Z" fill="#C09300"/>
</g>
</g>
<path id="Vector_20" d="M10.2494 8.68083C11.0654 8.05318 10.9954 7.13376 10.9954 7.13376C10.9739 7.13806 10.9534 7.14021 10.9319 7.14021C10.7607 7.14021 10.3524 7.04228 10.2572 6.91791C10.1552 7.03048 9.73795 7.14021 9.56787 7.14021C9.54637 7.14021 9.52482 7.13806 9.50437 7.13376C9.50437 7.13376 9.4333 8.05316 10.2494 8.68083Z" fill="white" stroke="#C09300" stroke-width="0.02875"/>
<path id="Vector_21" d="M10.9304 7.20108C10.9234 7.20153 10.9163 7.20173 10.9092 7.20173C10.7541 7.20173 10.3937 7.12216 10.2548 7.00281C10.1093 7.11306 9.74305 7.20171 9.5904 7.20171C9.58328 7.20163 9.57619 7.20091 9.5692 7.19956C9.56883 7.23431 9.57065 7.27036 9.5728 7.30316C9.58088 7.42566 9.60238 7.54866 9.635 7.66696C9.7377 8.03933 9.9479 8.35578 10.2493 8.59583C10.551 8.35558 10.7614 8.03883 10.8643 7.66621C10.897 7.54791 10.9186 7.42496 10.9267 7.30246C10.9289 7.27033 10.9306 7.23516 10.9304 7.20108H10.9304Z" fill="white" stroke="#C09300" stroke-width="0.0229"/>
<path id="Vector_22" d="M9.98435 7.12582C9.83755 7.17194 9.6786 7.20157 9.5906 7.20157C9.58345 7.20157 9.57652 7.20057 9.5695 7.19924C9.56915 7.23399 9.57125 7.27039 9.5734 7.30317C9.58163 7.42603 9.60232 7.54773 9.63515 7.66642C9.70425 7.91707 9.8228 8.14224 9.98435 8.33597V7.12582ZM10.4998 7.12357V8.35482C10.6697 8.15682 10.7932 7.92467 10.8647 7.66577C10.8975 7.54708 10.9182 7.42537 10.9264 7.30252C10.9285 7.27039 10.9306 7.23502 10.9303 7.20092C10.9233 7.20137 10.9163 7.20172 10.9092 7.20172C10.8159 7.20172 10.6487 7.17247 10.4998 7.12359L10.4998 7.12357Z" fill="#C09300"/>
<g id="Group_4">
<path id="Vector_23" d="M10.5576 6.82733C10.5743 6.82833 10.5351 6.73813 10.5351 6.73813C10.5792 6.78323 10.7458 6.794 10.7458 6.794C10.6458 6.74985 10.5459 6.4166 10.5576 6.151C10.5684 5.88438 10.5194 5.7795 10.4802 5.74025C10.4302 5.69025 10.2694 5.64618 10.1636 5.6403C10.1038 5.6373 10.1136 5.68535 10.1136 5.68535C10.0028 5.65693 9.89208 5.64615 9.84203 5.67948C9.79498 5.71085 9.78518 5.86768 9.81953 5.84023C9.90278 5.77358 9.97536 5.83435 10.0253 5.90688C10.0694 5.97063 10.0665 6.15095 10.0028 6.36168C9.93613 6.58318 9.75378 6.80473 9.75378 6.80473C9.85278 6.80473 9.99203 6.71653 9.99203 6.71653L9.95868 6.8547C10.0636 6.8047 10.1469 6.72728 10.1469 6.72728L10.2469 6.83215C10.2802 6.78805 10.3468 6.72728 10.3468 6.72728C10.3468 6.72728 10.4302 6.81553 10.5576 6.82728L10.5576 6.82733Z" fill="white" stroke="#C09300" stroke-width="0.03045"/>
<path id="Vector_24" d="M10.1529 6.18934C10.1529 6.18934 10.097 6.60004 9.99213 6.71669M10.2411 6.17859C10.2411 6.17859 10.2196 6.59416 10.147 6.72749M10.3194 6.19534C10.3194 6.19534 10.3194 6.65014 10.3468 6.72759M10.4184 6.21784C10.4184 6.21784 10.4409 6.60009 10.535 6.73834" stroke="#C09300" stroke-width="0.03175"/>
<path id="Vector_25" d="M10.0519 5.99034C10.047 5.95409 10.0381 5.92564 10.0254 5.90701C9.97543 5.83451 9.90288 5.77371 9.81958 5.84036C9.81958 5.84036 9.848 5.75216 9.90878 5.74924C9.95583 5.74629 10.0627 5.78449 10.1568 5.94524C10.1568 5.94524 10.0872 5.92959 10.0705 5.94429C10.0391 5.97174 10.0519 5.99034 10.0519 5.99034Z" fill="#C09300" stroke="#C09300" stroke-width="0.00885"/>
<path id="Vector_26" d="M9.81087 5.73157C9.81772 5.70902 9.82852 5.68844 9.84225 5.67962C9.89225 5.64629 10.003 5.65707 10.1137 5.68549C10.1137 5.68549 10.1039 5.63749 10.1637 5.64042C10.2696 5.64629 10.4303 5.69042 10.4803 5.74042C10.4921 5.75317 10.5058 5.77177 10.5176 5.80017H10.5156C10.4911 5.76587 10.4215 5.76784 10.4049 5.76979C10.3784 5.77272 10.3617 5.77172 10.3264 5.78054C10.3098 5.78447 10.2843 5.78937 10.2705 5.80014C10.2598 5.80897 10.2509 5.84132 10.2343 5.84132C10.2078 5.84132 10.2098 5.83449 10.2029 5.82664C10.1941 5.81589 10.1892 5.80014 10.1804 5.80114C10.1529 5.80607 10.1088 5.78449 10.053 5.74039C9.9971 5.69627 9.97552 5.68549 9.90297 5.69039C9.83147 5.69627 9.8089 5.73647 9.8089 5.73647L9.8109 5.73157H9.81087Z" fill="#C09300" stroke="#C09300" stroke-width="0.00885"/>
<path id="Vector_27" d="M10.2204 5.79629C10.2367 5.79629 10.2498 5.78312 10.2498 5.76689C10.2498 5.75065 10.2367 5.73749 10.2204 5.73749C10.2042 5.73749 10.191 5.75065 10.191 5.76689C10.191 5.78312 10.2042 5.79629 10.2204 5.79629Z" fill="white"/>
</g>
</g>
</g>
<defs>
<clipPath id="clip0_1_58">
<rect width="20" height="15" fill="white" transform="translate(0.25 0.5)"/>
</clipPath>
</defs>
</svg>
